<svg version="1.2" xmlns="http://www.w3.org/2000/svg" viewBox="0 0 128 128" width="512" height="512">
	<title>Nouveau projet</title>
	<style>
		.s0 { fill: #5b5b5b } 
		.s1 { fill: #363636 } 
	</style>
	<g id="Camera">
		<path id="Forme 11 copy" class="s0" d="m0 64c0-35.3 28.7-64 64-64 35.3 0 64 28.7 64 64 0 35.3-28.7 64-64 64-35.3 0-64-28.7-64-64z"/>
		<path id="Forme 8" fill-rule="evenodd" class="s1" d="m56.1 34h16.4c2.8 0 5.3 1.8 6.1 4.4l1.4 4.1h10c4.8 0 8.6 3.9 8.6 8.6v34.1c0 4.7-3.8 8.6-8.6 8.6h-51.4c-4.8 0-8.6-3.9-8.6-8.6v-34.1c0-4.7 3.8-8.6 8.6-8.6h10l1.4-4.1c0.9-2.6 3.3-4.4 6.1-4.4zm-0.9 25.1c-2.4 2.4-3.8 5.7-3.8 9.1 0 3.4 1.4 6.6 3.8 9 2.4 2.4 5.7 3.8 9.1 3.8 3.4 0 6.7-1.4 9.1-3.8 2.4-2.4 3.8-5.6 3.8-9 0-3.4-1.4-6.7-3.8-9.1-2.4-2.4-5.7-3.8-9.1-3.8-3.4 0-6.7 1.4-9.1 3.8z"/>
	</g>
</svg>