<svg version="1.2" xmlns="http://www.w3.org/2000/svg" viewBox="0 0 128 128" width="512" height="512">
	<title>Nouveau projet</title>
	<style>
		.s0 { fill: #cfcfcf } 
		.s1 { fill: #202020 } 
	</style>
	<g id="Close">
		<path id="Forme 2 copy" class="s0" d="m64 128c-35.4 0-64-28.6-64-64 0-35.4 28.6-64 64-64 35.4 0 64 28.6 64 64 0 35.4-28.6 64-64 64z"/>
		<path id="Close" fill-rule="evenodd" class="s1" d="m18.7 109.3c-12-12-18.7-28.3-18.7-45.3 0-17 6.7-33.3 18.7-45.3 12-12 28.3-18.7 45.3-18.7 17 0 33.3 6.7 45.3 18.7 12 12 18.7 28.3 18.7 45.3 0 17-6.7 33.3-18.7 45.3-12 12-28.3 18.7-45.3 18.7-17 0-33.3-6.7-45.3-18.7zm25-57.1l11.8 11.8-11.8 11.7c-2.3 2.3-2.3 6.2 0 8.5 2.4 2.3 6.2 2.3 8.5 0l11.8-11.7 11.7 11.7c2.3 2.3 6.1 2.3 8.5 0 2.3-2.3 2.3-6.1 0-8.5l-11.8-11.7 11.8-11.8c2.3-2.3 2.3-6.1 0-8.4-2.3-2.4-6.1-2.4-8.5 0l-11.7 11.7-11.8-11.7c-2.3-2.4-6.1-2.4-8.5 0-2.3 2.3-2.3 6.1 0 8.4z"/>
	</g>
</svg>