<?xml version="1.0" encoding="UTF-8" standalone="no"?>
<svg
   version="1.2"
   viewBox="0 0 128 128"
   width="512"
   height="512"
   id="svg8"
   sodipodi:docname="Finger print.svg"
   style="fill:#800080"
   inkscape:version="1.2.2 (b0a8486541, 2022-12-01)"
   xmlns:inkscape="http://www.inkscape.org/namespaces/inkscape"
   xmlns:sodipodi="http://sodipodi.sourceforge.net/DTD/sodipodi-0.dtd"
   xmlns="http://www.w3.org/2000/svg"
   xmlns:svg="http://www.w3.org/2000/svg"
   xmlns:rdf="http://www.w3.org/1999/02/22-rdf-syntax-ns#"
   xmlns:cc="http://creativecommons.org/ns#"
   xmlns:dc="http://purl.org/dc/elements/1.1/">
  <defs
     id="defs12" />
  <sodipodi:namedview
     id="namedview10"
     pagecolor="#ffffff"
     bordercolor="#000000"
     borderopacity="0.25"
     inkscape:showpageshadow="2"
     inkscape:pageopacity="0.0"
     inkscape:pagecheckerboard="0"
     inkscape:deskcolor="#d1d1d1"
     showgrid="false"
     inkscape:zoom="1.4394531"
     inkscape:cx="127.13161"
     inkscape:cy="256"
     inkscape:window-width="1920"
     inkscape:window-height="1052"
     inkscape:window-x="0"
     inkscape:window-y="0"
     inkscape:window-maximized="1"
     inkscape:current-layer="svg8" />
  <title
     id="title2">Fingerprint</title>
  <style
     id="style4">
		.s0 { fill: #FF00FF } 
	</style>
  <g
     id="Finger print"
     style="fill:#800080">
    <path
       id="Forme 3"
       fill-rule="evenodd"
       class="s0"
       d="m12 75.1c0 3.4-2.7 6.1-6 6.1-3.3 0-6-2.7-6-6.1v-10.1c0-35.9 28.6-65 64-65 19.4 0 36.8 8.8 48.5 22.7 2.2 2.5 1.9 6.4-0.6 8.5-2.5 2.2-6.3 1.9-8.5-0.6-9.5-11.3-23.6-18.4-39.4-18.4-28.7 0-52 23.6-52 52.8zm116-10.2v10.2c0 3.4-2.7 6.1-6 6.1-3.3 0-6-2.7-6-6.1v-10.2c0-3.7-0.4-7.4-1.1-10.9-0.7-3.3 1.4-6.5 4.6-7.2 3.2-0.7 6.4 1.4 7.1 4.7q1.4 6.5 1.4 13.4zm-20 0v6.4q0 10.5-1.2 21c-0.4 2.9-2.9 5.1-5.9 5.1-3.7 0-6.4-3.3-6-7q1.1-9.6 1.1-19.2v-6.3c0-17.9-14.3-32.5-32-32.5q-4.4 0-8.4 1.2c-2.6 0.7-5.5 0.1-7.3-2.1-2.6-3-1.7-7.8 2.1-9.1 4.2-1.4 8.8-2.1 13.6-2.1 24.3 0 44 20 44 44.6zm-70.3-18.5c-3.6 5.2-5.7 11.6-5.7 18.5v6.3c0 7.4-0.8 14.7-2.4 21.8-0.6 2.6-3 4.4-5.6 4.4-4 0-6.8-4-6-7.9 1.3-6 2-12.1 2-18.3v-6.3c0-10.3 3.4-19.8 9.2-27.3 2.1-2.8 6.2-2.6 8.5 0.1 2 2.4 1.8 6 0 8.7zm50.3 18.5v6.3c0 10.1-1 20.2-2.9 30-0.5 2.6-2.7 4.3-5.3 4.3-3.5 0-6.1-3.3-5.4-6.9 1.7-9 2.6-18.1 2.6-27.4v-6.3c0-7.3-5.8-13.2-13-13.2-7.2 0-13 5.9-13 13.2v6.3c0 10.3-1.4 20.5-4 30.4-0.6 2.4-2.7 3.9-5.1 3.9-3.7 0-6.3-3.7-5.4-7.3 2.3-8.8 3.5-17.8 3.5-27v-6.3c0-13.4 10.7-24.3 24-24.3 13.2 0 24 10.9 24 24.3zm-18 6.3c0 16.7-3 33.3-8.9 48.9l-1.5 3.9c-1.2 3.1-4.7 4.7-7.8 3.5-3.1-1.2-4.6-4.8-3.4-7.9l1.5-3.9c5.3-14.2 8.1-29.3 8.1-44.5v-6.3c0-3.4 2.7-6.1 6-6.1 3.3 0 6 2.7 6 6.1z"
       style="fill:#800080" />
  </g>
  <metadata
     id="metadata172">
    <rdf:RDF>
      <cc:Work
         rdf:about="">
        <dc:title>Fingerprint</dc:title>
      </cc:Work>
    </rdf:RDF>
  </metadata>
</svg>
