<svg version="1.2" xmlns="http://www.w3.org/2000/svg" viewBox="0 0 128 128" width="512" height="512">
	<title>Nouveau projet</title>
	<style>
		.s0 { fill: #cfcfcf } 
		.s1 { fill: #202020 } 
	</style>
	<g id="Fleche">
		<path id="Forme 2" class="s0" d="m63.5 109c-25.2 0-45.5-20.3-45.5-45.5 0-25.2 20.3-45.5 45.5-45.5 25.2 0 45.5 20.3 45.5 45.5 0 25.2-20.3 45.5-45.5 45.5z"/>
		<path id="Fleche" fill-rule="evenodd" class="s1" d="m18.7 18.7c12-12 28.3-18.7 45.2-18.7 17 0 33.2 6.7 45.2 18.7 12 12 18.7 28.3 18.7 45.2 0 17-6.7 33.2-18.7 45.2-12 12-28.2 18.7-45.2 18.7-16.9 0-33.2-6.7-45.2-18.7-12-12-18.7-28.2-18.7-45.2 0-16.9 6.7-33.2 18.7-45.2zm79.4 49.4c2.4-2.3 2.4-6.1 0-8.4l-27.9-28c-2.4-2.3-6.2-2.3-8.5 0-2.3 2.4-2.3 6.2 0 8.5l17.7 17.7h-45.4c-3.4 0-6 2.7-6 6 0 3.3 2.6 6 6 6h45.4l-17.7 17.8c-2.3 2.3-2.3 6.1 0 8.4 2.3 2.4 6.1 2.4 8.5 0z"/>
	</g>
</svg>