<svg version="1.2" xmlns="http://www.w3.org/2000/svg" viewBox="0 0 128 128" width="512" height="512">
	<title>Nouveau projet</title>
	<style>
		.s0 { fill: #5b5b5b } 
		.s1 { fill: #363636 } 
	</style>
	<g id="Coller">
		<path id="Forme 11 copy" class="s0" d="m0 64c0-35.3 28.7-64 64-64 35.3 0 64 28.7 64 64 0 35.3-28.7 64-64 64-35.3 0-64-28.7-64-64z"/>
		<path id="Forme 14" fill-rule="evenodd" class="s1" d="m58.8 34.3h7.6c3.6 0 6.4 2.9 6.4 6.4v2.1h-6.4c-5.9 0-10.7 4.8-10.7 10.8v36.4h-19.3c-3.5 0-6.4-2.9-6.4-6.5v-42.8c0-3.5 2.9-6.4 6.4-6.4h7.6c1.5-2.6 4.2-4.3 7.4-4.3 3.2 0 6 1.7 7.4 4.3zm22.6 12.8v12.9c0 2.3 1.9 4.3 4.3 4.3h12.8v27.8c0 3.5-2.9 6.4-6.4 6.4h-25.7c-3.5 0-6.4-2.9-6.4-6.4v-38.5c0-3.6 2.9-6.5 6.4-6.5zm-32.2-10.8c-0.6 0.6-1 1.4-1 2.3 0 0.8 0.4 1.6 1 2.2 0.6 0.6 1.4 1 2.2 1 0.9 0 1.7-0.4 2.3-1 0.6-0.6 0.9-1.4 0.9-2.2 0-0.9-0.3-1.7-0.9-2.3-0.6-0.6-1.4-0.9-2.3-0.9-0.8 0-1.6 0.3-2.2 0.9zm49.3 23.7h-12.8v-12.9z"/>
	</g>
</svg>