<?xml version="1.0" encoding="UTF-8" standalone="no"?>
<svg
   version="1.2"
   viewBox="0 0 128 128"
   width="512"
   height="512"
   id="svg10"
   sodipodi:docname="Previous.svg"
   inkscape:version="1.2.2 (b0a8486541, 2022-12-01)"
   xmlns:inkscape="http://www.inkscape.org/namespaces/inkscape"
   xmlns:sodipodi="http://sodipodi.sourceforge.net/DTD/sodipodi-0.dtd"
   xmlns="http://www.w3.org/2000/svg"
   xmlns:svg="http://www.w3.org/2000/svg"
   xmlns:rdf="http://www.w3.org/1999/02/22-rdf-syntax-ns#"
   xmlns:cc="http://creativecommons.org/ns#"
   xmlns:dc="http://purl.org/dc/elements/1.1/">
  <defs
     id="defs14" />
  <sodipodi:namedview
     id="namedview12"
     pagecolor="#ffffff"
     bordercolor="#000000"
     borderopacity="0.25"
     inkscape:showpageshadow="2"
     inkscape:pageopacity="0.0"
     inkscape:pagecheckerboard="0"
     inkscape:deskcolor="#d1d1d1"
     showgrid="false"
     inkscape:zoom="1.4394531"
     inkscape:cx="256"
     inkscape:cy="256"
     inkscape:window-width="1920"
     inkscape:window-height="1052"
     inkscape:window-x="0"
     inkscape:window-y="0"
     inkscape:window-maximized="1"
     inkscape:current-layer="svg10" />
  <title
     id="title2">Nouveau projet</title>
  <style
     id="style4">
		.s0 { fill: #cfcfcf } 
		.s1 { fill: #202020 } 
	</style>
  <g
     id="g8"
     transform="matrix(-1,0,0,1,127.8,0)">
    <path
       id="Forme 2"
       class="s0"
       d="M 63.5,109 C 38.3,109 18,88.7 18,63.5 18,38.3 38.3,18 63.5,18 88.7,18 109,38.3 109,63.5 109,88.7 88.7,109 63.5,109 Z" />
    <path
       id="Fleche"
       fill-rule="evenodd"
       class="s1"
       d="M 18.7,18.7 C 30.7,6.7 47,0 63.9,0 c 17,0 33.2,6.7 45.2,18.7 12,12 18.7,28.3 18.7,45.2 0,17 -6.7,33.2 -18.7,45.2 -12,12 -28.2,18.7 -45.2,18.7 C 47,127.8 30.7,121.1 18.7,109.1 6.7,97.1 0,80.9 0,63.9 0,47 6.7,30.7 18.7,18.7 Z m 79.4,49.4 c 2.4,-2.3 2.4,-6.1 0,-8.4 l -27.9,-28 c -2.4,-2.3 -6.2,-2.3 -8.5,0 -2.3,2.4 -2.3,6.2 0,8.5 L 79.4,57.9 H 34 c -3.4,0 -6,2.7 -6,6 0,3.3 2.6,6 6,6 H 79.4 L 61.7,87.7 c -2.3,2.3 -2.3,6.1 0,8.4 2.3,2.4 6.1,2.4 8.5,0 z" />
  </g>
  <metadata
     id="metadata190">
    <rdf:RDF>
      <cc:Work
         rdf:about="">
        <dc:title>Nouveau projet</dc:title>
      </cc:Work>
    </rdf:RDF>
  </metadata>
</svg>
