<svg version="1.2" xmlns="http://www.w3.org/2000/svg" viewBox="0 0 128 128" width="512" height="512">
	<title>Nouveau projet</title>
	<style>
		.s0 { fill: #5b5b5b } 
		.s1 { fill: #363636 } 
	</style>
	<g id="Répertoire ">
		<path id="Forme 11 copy 2" class="s0" d="m0 64c0-35.3 28.7-64 64-64 35.3 0 64 28.7 64 64 0 35.3-28.7 64-64 64-35.3 0-64-28.7-64-64z"/>
		<path id="Forme 10" fill-rule="evenodd" class="s1" d="m47.2 85.3c-4.6 0-10.5 1.3-14.3 2.5-1.4 0.4-2.9-0.5-2.9-1.8v-41.2c0-1.4 0.8-2.6 2.2-3.1 3.3-1.2 9-2.7 15-2.7 7 0 12.4 2.2 14.8 4 0.4 0.3 0.6 0.7 0.6 1.2v42c0 1.3-1.4 2.1-2.7 1.7-3.2-1-8.6-2.6-12.7-2.6zm19.2 0.9v-42c0-0.5 0.2-0.9 0.6-1.2 2.4-1.8 7.7-4 14.7-4 6.1 0 11.7 1.5 15.1 2.7 1.4 0.5 2.2 1.7 2.2 3.1v41.2c0 1.3-1.6 2.2-2.9 1.8-3.8-1.2-9.8-2.5-14.4-2.5-4 0-9.4 1.6-12.6 2.6-1.3 0.4-2.7-0.4-2.7-1.7z"/>
	</g>
</svg>